<?xml version="1.0" encoding="UTF-8"?>
<svg id="Layer_2" data-name="Layer 2" xmlns="http://www.w3.org/2000/svg" xmlns:xlink="http://www.w3.org/1999/xlink" viewBox="0 0 1097.04 1161.38">
  <defs>
    <style>
      .cls-1 {
        fill: none;
        stroke-width: 26px;
      }

      .cls-1, .cls-2 {
        stroke: #21140c;
        stroke-miterlimit: 10;
      }

      .cls-3 {
        fill: #662d1e;
      }

      .cls-3, .cls-4, .cls-5, .cls-6, .cls-7, .cls-8, .cls-9, .cls-10, .cls-11, .cls-12, .cls-13 {
        stroke-width: 0px;
      }

      .cls-4 {
        fill: url(#linear-gradient);
      }

      .cls-5 {
        fill: #b62203;
      }

      .cls-2 {
        stroke-width: 4px;
      }

      .cls-2, .cls-14, .cls-8 {
        fill: #21140c;
      }

      .cls-6 {
        fill: #f78538;
      }

      .cls-15 {
        letter-spacing: -.02em;
      }

      .cls-7 {
        fill: url(#linear-gradient-5);
      }

      .cls-14 {
        font-family: GatteModern-Medium, 'Gatte Modern';
        font-size: 51.55px;
        font-weight: 500;
      }

      .cls-9 {
        fill: #bfbfbf;
      }

      .cls-10 {
        fill: url(#linear-gradient-2);
      }

      .cls-16 {
        letter-spacing: -.05em;
      }

      .cls-11 {
        fill: url(#linear-gradient-3);
      }

      .cls-12 {
        fill: #231f20;
      }

      .cls-17 {
        letter-spacing: -.05em;
      }

      .cls-18 {
        letter-spacing: -.04em;
      }

      .cls-13 {
        fill: url(#linear-gradient-4);
      }
    </style>
    <linearGradient id="linear-gradient" x1="226.8" y1="312.87" x2="802.42" y2="312.87" gradientUnits="userSpaceOnUse">
      <stop offset="0" stop-color="#801100"/>
      <stop offset="1" stop-color="#d45400"/>
    </linearGradient>
    <linearGradient id="linear-gradient-2" x1="221.02" y1="241.52" x2="850.38" y2="241.52" gradientUnits="userSpaceOnUse">
      <stop offset="0" stop-color="#801100"/>
      <stop offset="1" stop-color="#b62203"/>
    </linearGradient>
    <linearGradient id="linear-gradient-3" x1="241.07" y1="346.86" x2="783.44" y2="346.86" gradientUnits="userSpaceOnUse">
      <stop offset="0" stop-color="#fa7500"/>
      <stop offset="1" stop-color="#f56100"/>
    </linearGradient>
    <linearGradient id="linear-gradient-4" x1="293.48" y1="414.42" x2="769.03" y2="414.42" gradientUnits="userSpaceOnUse">
      <stop offset="0" stop-color="#1d080f"/>
      <stop offset="1" stop-color="#30160e"/>
    </linearGradient>
    <linearGradient id="linear-gradient-5" x1="331.88" y1="411.08" x2="815.54" y2="411.08" gradientUnits="userSpaceOnUse">
      <stop offset="0" stop-color="#662d1e"/>
      <stop offset=".99" stop-color="#d95800"/>
    </linearGradient>
  </defs>
  <g id="Layer_1-2" data-name="Layer 1">
    <g>
      <g>
        <path class="cls-1" d="m820.53,413.17l8.2-1.79,100.29-21.76c12.8-2.78,19.14-17.27,12.5-28.56l-.27-.46c-4.22-7.16-12.55-10.8-20.67-9.04l-142.6,31.55"/>
        <path class="cls-3" d="m294.07,472.09c-5.53-9.09-6.8-18.33-4.93-27.2-1.02,9.22.69,18.97,4.93,27.2Z"/>
        <path class="cls-3" d="m393.62,393.63c-7.98-2.81-16.64-3.97-25.37-3.67,9-.47,17.69.65,25.37,3.67Z"/>
        <path class="cls-6" d="m288.6,448.11c.17-4.11.96-8.5,2.74-12.95-1.1,3.1-1.83,6.37-2.2,9.71,0,0,0,.02,0,.03-.22,1.06-.4,2.13-.54,3.21Z"/>
        <path class="cls-6" d="m306.5,486.38c.24.17.5.34.75.5h-.09c-.22-.17-.44-.33-.65-.5Z"/>
        <path class="cls-6" d="m306.98,416.25c1.77-.98,3.65-1.74,5.62-2.21-2.25.71-4.34,1.63-6.27,2.71-1.12.63-2.17,1.32-3.18,2.06,1.18-.93,2.42-1.76,3.71-2.49.04-.03.07-.05.11-.06Z"/>
        <path class="cls-6" d="m345.03,393.85c7.75-2.57,15.69-3.87,23.76-3.93-.18,0-.36.02-.54.03-12.21.4-24.55,3.62-35.41,9.13-.48.24-.96.49-1.43.75,4.06-2.26,8.6-4.32,13.62-5.98Z"/>
        <path class="cls-6" d="m407.24,384.9c.24-.12.48-.24.73-.36-5.05,2.53-9.86,5.57-14.35,9.09,2.11-1.69,4.33-3.29,6.61-4.77.32-.2.65-.42.98-.62.23-.14.46-.28.69-.42.32-.19.64-.38.97-.57.05-.03.11-.06.17-.09.17-.1.34-.19.51-.29.56-.32,1.13-.63,1.71-.95.05-.03.11-.05.17-.09.41-.22.82-.43,1.24-.65.16-.08.32-.17.48-.24.03-.01.05-.03.09-.04Z"/>
        <path class="cls-6" d="m465.12,378.78c.55.16,1.1.32,1.65.49-10.07-3.05-20.36-3.95-30.37-2.96,6.68-.71,13.98-.61,21.7.83.98.18,1.96.38,2.93.61.48.11.95.22,1.43.34h.01c.48.12.95.24,1.42.36.42.11.83.22,1.24.34Z"/>
        <path class="cls-6" d="m510.26,365.97c.28,0,.56,0,.83,0-10.85.22-21.94,2.7-31.48,6.58,7.65-3.19,18.19-6.33,30.41-6.57.08,0,.16,0,.24,0Z"/>
        <path class="cls-6" d="m579.69,353.68c.65.01,1.31.04,1.97.08-10.61-.42-21.53,1.48-31.3,5.08,7.67-2.89,17.8-5.45,29.33-5.16Z"/>
        <path class="cls-6" d="m613.87,349.63c.26-.13.52-.25.77-.38-4.72,2.32-9.21,5.11-13.41,8.33,2.09-1.65,4.3-3.19,6.58-4.61.34-.21.7-.43,1.06-.64.37-.21.75-.43,1.12-.65.06-.03.11-.06.17-.1.63-.35,1.28-.71,1.95-1.06.15-.07.28-.15.43-.22.22-.11.44-.22.65-.33.22-.11.45-.22.67-.34Z"/>
        <path class="cls-6" d="m667.04,343.64c.37.1.74.2,1.1.3-8.6-2.38-17.38-3.12-25.98-2.39,6.05-.56,12.62-.41,19.54.88.48.09.96.19,1.44.29.34.07.69.14,1.03.22.44.09.88.2,1.32.3.52.13,1.03.26,1.55.39Z"/>
        <path class="cls-6" d="m748.14,358.01c-12.58-12.25-29.39-19.87-46.62-20.7,5.09.09,10.53.75,16.13,2.3,10.67,2.95,20.4,8.7,28.54,16.47.04.03.07.07.11.11.62.59,1.24,1.2,1.84,1.82Z"/>
        <path class="cls-6" d="m289.14,444.87c1.28-11.58,6.88-22.31,17.19-28.12-8.75,8.3-15.04,17.95-17.19,28.12Z"/>
        <path class="cls-6" d="m307.25,486.87c-5.68-3.59-10.11-8.78-13.18-14.78,3.04,5.01,7.38,9.96,13.18,14.78Z"/>
        <path class="cls-6" d="m368.25,389.95c-11.76.6-24.08,3.9-35.41,9.13,10.86-5.51,23.2-8.74,35.41-9.13Z"/>
        <path class="cls-6" d="m390.86,336.23c.08-.32.16-.63.23-.95-.05.2-.09.41-.15.61-.03.12-.06.24-.09.35v-.02Z"/>
        <path class="cls-6" d="m572.75,200.49c.13.09.26.19.39.28-.24-.17-.48-.33-.71-.5.11.07.21.15.32.22Z"/>
        <path class="cls-6" d="m598.36,227.6c.17.28.34.56.51.83-.17-.28-.34-.56-.52-.83h0Z"/>
        <path class="cls-6" d="m599.94,230.22c.09.16.19.32.28.48-.17-.29-.34-.58-.51-.87.09.13.16.25.23.38Z"/>
        <path class="cls-6" d="m247.72,400.33c-.23.15-.46.3-.67.46-8.89,6.07-15.33,14.51-18.5,24.08,2.91-9.42,9.15-18.06,19.17-24.53Z"/>
        <path class="cls-6" d="m287.27,387.08c0,.09,0,.19,0,.28-.07.98-.5,1.86-1.16,2.51.65-.73,1-1.73,1.17-2.8Z"/>
        <path class="cls-6" d="m337.61,333.1c-.15.65-.25,1.32-.3,1.99,0-.19.03-.4.05-.61s.06-.44.1-.67c.04-.23.09-.47.15-.71Z"/>
        <path class="cls-6" d="m339.93,326.98c-.42.91-.84,1.83-1.22,2.77.05-.14.11-.27.16-.41.19-.46.39-.93.61-1.4.15-.32.3-.63.45-.96Z"/>
        <path class="cls-6" d="m343.71,320.39c-1.42,2.19-2.68,4.43-3.78,6.59.16-.32.32-.65.49-.98.93-1.84,2.05-3.75,3.29-5.61Z"/>
        <path class="cls-6" d="m344.25,312.15c-1.25.53-2.5,1.09-3.76,1.7-.84.4-1.68.82-2.52,1.26-.42.22-.83.44-1.26.67-.33.18-.67.36-1,.55-.97.54-1.95,1.1-2.92,1.69-.48.29-.96.59-1.45.89,4.12-2.6,8.44-4.87,12.91-6.74Z"/>
        <path class="cls-6" d="m355.81,308.36c-1.79.93-3.46,2.11-5,3.48.14-.13.28-.26.42-.38,1.51-1.32,3.05-2.39,4.57-3.1Z"/>
        <path class="cls-6" d="m367.11,317.93c-.52.42-1.07.83-1.63,1.22-.83.56-1.69,1.08-2.61,1.55-.51.2-1.01.4-1.53.58-.67.24-1.34.46-2.01.67-.59.19-1.18.36-1.76.53-.3.09-.6.17-.9.26-.51.14-1.01.28-1.51.42-.96.27-1.93.55-2.87.84-.71.22-1.42.46-2.12.7,5.8-2.24,11.94-3.23,16.95-6.77Z"/>
        <path class="cls-6" d="m374.47,280.55c-.14-.29-.27-.57-.42-.86.14.27.28.55.41.83,0,0,0,.02,0,.03Z"/>
        <path class="cls-6" d="m377.13,297.03c-.07.83-.17,1.66-.29,2.49-.13.83-.28,1.65-.46,2.47-.17.79-.38,1.57-.61,2.34.58-2.14,1.04-4.56,1.37-7.3Z"/>
        <path class="cls-6" d="m377.25,294v.47c0,.06,0,.13,0,.19,0-.22,0-.44,0-.65Z"/>
        <path class="cls-6" d="m392.99,319.11c0-.16,0-.31,0-.47,0,.16,0,.31,0,.47Z"/>
        <path class="cls-6" d="m390.86,336.23c.08-.32.16-.63.23-.95-.05.2-.09.41-.15.61-.03.11-.06.22-.09.33Z"/>
        <path class="cls-6" d="m404.88,360.29s-.1.08-.15.12c-.66.52-1.34,1-2.03,1.48-.32.22-.63.44-.96.65-1.14.76-2.33,1.47-3.55,2.14-.31.17-.63.34-.95.5-1.12.58-2.28,1.12-3.46,1.61-.59.24-1.18.48-1.78.7-1.2.44-2.43.83-3.69,1.18-.62.17-1.26.32-1.9.47-.01,0-.03,0-.04,0-.3.07-.61.11-.91.17,7.05-1.47,13.64-4.65,19.41-9.03Z"/>
        <path class="cls-6" d="m426.6,322.17c-.01.32-.03.65-.05.99-.03.52-.09,1.06-.15,1.59-.19,1.48-.48,3.02-.87,4.61-.16.6-.32,1.22-.51,1.84,0,.03-.02.05-.03.08-.16.54-.34,1.09-.53,1.64-.35,1.06-.75,2.12-1.2,3.19-.13.33-.28.66-.42,1-.06.14-.13.28-.19.42,2.11-4.92,3.48-10.1,3.95-15.36Z"/>
        <path class="cls-6" d="m435.36,340.89c-.2-1.11-.47-2.28-.79-3.47-.13-.48-.26-.96-.42-1.45-.09-.28-.17-.57-.26-.85-.72-2.26-1.63-4.53-2.68-6.6,2.06,3.79,3.5,8.14,4.15,12.37Z"/>
        <path class="cls-6" d="m440.75,334.24c-.06.56-.13,1.1-.22,1.65-.26,1.63-.65,3.22-1.2,4.8-.11.32-.22.63-.34.94-.09.22-.17.44-.26.65-.22.52-.45,1.04-.71,1.56,0,0-.01.01-.01.03-.36.73-.77,1.47-1.22,2.2-.34.56-.69,1.1-1.08,1.66,4.09-6.38,5.2-12.91,5.27-19.5.05,2.07-.01,4.06-.23,6.02Z"/>
        <path class="cls-6" d="m457.73,275.48c-.74.51-1.45,1.03-2.12,1.55-.48.36-.94.73-1.39,1.09-5.65,4.61-9.11,9.37-11.22,14.33-.09.2-.17.4-.24.59-.17.4-.32.8-.46,1.2-.07.18-.13.37-.2.56-.15.45-.3.9-.43,1.35-.05.19-.11.38-.16.57-.08.26-.15.54-.21.81-.04.14-.07.28-.11.42-.31,1.28-.55,2.56-.74,3.86-.05.35-.09.7-.14,1.06,0,.03,0,.05,0,.08-.03.21-.05.43-.07.64-.01.11-.03.21-.04.32.7-9.75,4.41-19.36,17.53-28.43Z"/>
        <path class="cls-6" d="m475.36,286.62c-.66-1.65-1.62-3.26-3.23-4.69,1.67,1.39,2.6,3,3.23,4.69Z"/>
        <path class="cls-6" d="m486.7,300c-2.35-.19-4.09-.66-5.42-1.35-.25-.13-.48-.26-.7-.41,1.78.93,3.85,1.49,6.12,1.76Z"/>
        <path class="cls-6" d="m505.99,150.21c-.34.76-.65,1.53-.95,2.31.28-.78.6-1.55.95-2.31Z"/>
        <path class="cls-6" d="m508.53,190.42c-3.79-5.98-6.22-12.88-6.09-22.43,0,.25,0,.5.01.75,0,.36.02.71.03,1.06.03.78.09,1.55.16,2.31.22,2.41.63,4.76,1.18,6.99.22.88.46,1.73.73,2.57.09.28.19.55.28.83h0c.25.73.52,1.45.81,2.13.15.35.3.69.45,1.03.31.67.63,1.32.97,1.94.2.36.4.71.6,1.06.28.61.57,1.2.85,1.75Z"/>
        <path class="cls-6" d="m513.71,142.11c-.05.27-.09.55-.13.83.02-.14.04-.28.06-.43.02-.13.04-.26.07-.4Z"/>
        <path class="cls-6" d="m518.43,291.3c-.41.25-.83.49-1.25.73.42-.24.84-.48,1.25-.73Z"/>
        <path class="cls-6" d="m522.54,174.79c-.46-.38-.89-.76-1.32-1.16-.42-.39-.83-.8-1.23-1.22-.34-.36-.66-.71-.96-1.09-.47-.55-.91-1.12-1.33-1.71-.63-.89-1.21-1.84-1.72-2.84,1.63,3.07,3.89,5.74,6.56,8.02Z"/>
        <path class="cls-6" d="m534.08,222.46c-4.48-7.57-9.68-13.29-14.55-18.59,2.77,2.54,5.8,5.53,9.29,10.65.54.7,1.06,1.41,1.57,2.12.91,1.29,1.77,2.59,2.57,3.91.4.63.77,1.27,1.12,1.91Z"/>
        <path class="cls-6" d="m539.75,184.17c-.55-.23-1.1-.46-1.63-.69-.27-.11-.54-.23-.81-.35,0,0-.01,0-.02,0-.53-.23-1.06-.46-1.57-.69-.79-.35-1.58-.71-2.34-1.07-.5-.24-1-.48-1.48-.72,0,0-.01,0-.02,0-.29-.15-.58-.29-.87-.44-.57-.3-1.14-.59-1.69-.9,3.4,1.76,6.9,3.35,10.44,4.88Z"/>
        <path class="cls-6" d="m540.72,260.82c-.11.5-.22,1-.35,1.5-.04.17-.09.34-.13.5-.11.44-.23.88-.36,1.32-.13.44-.26.88-.41,1.31-.03.1-.07.2-.11.3-.18.54-.37,1.07-.57,1.6-.36.95-.75,1.88-1.17,2.8-.1.21-.2.43-.3.64,4.21-9.13,5.34-19.61,3.63-29.67.17.89.3,1.78.42,2.67.09.68.17,1.36.22,2.04.47,5.09.18,10.13-.88,14.98Z"/>
        <path class="cls-6" d="m570.66,199.1c-.33-.22-.66-.43-1-.64-.79-.5-1.57-.98-2.36-1.45-.4-.24-.79-.47-1.18-.69-.01-.01-.03-.02-.04-.03-.62-.36-1.24-.71-1.86-1.04-.01-.01-.03-.02-.04-.03-.36-.2-.71-.39-1.06-.58-1.24-.67-2.48-1.3-3.71-1.91h0c-.32-.16-.63-.32-.95-.47,4.21,2.01,8.31,4.22,12.21,6.85Z"/>
        <path class="cls-6" d="m574.81,201.96c.1.07.19.14.29.21-.37-.27-.73-.54-1.11-.8.27.19.55.38.82.59Z"/>
        <path class="cls-6" d="m581.08,207.01c-.87-.77-1.74-1.51-2.62-2.23-.31-.26-.62-.51-.93-.75-.02-.01-.03-.03-.05-.04-.55-.44-1.1-.86-1.65-1.27-.25-.19-.5-.37-.74-.55,2.06,1.5,4.06,3.11,5.98,4.84Z"/>
        <path class="cls-6" d="m573.14,200.77c-.24-.17-.48-.33-.71-.5.11.07.21.15.32.22.13.09.26.19.39.28Z"/>
        <path class="cls-6" d="m579.56,174.55c-5.58-5.37-11.83-9.8-18.43-12.9,5.73,2.26,11.91,6.55,17.76,12.25.22.21.44.43.66.65Z"/>
        <path class="cls-6" d="m599.45,180.06c-1.56-1.5-3.19-2.93-4.89-4.28,1.7,1.34,3.33,2.76,4.89,4.28Z"/>
        <path class="cls-6" d="m599.94,230.22c.19.32.38.63.56.96l-.28-.48c-.17-.29-.34-.58-.51-.87.09.13.16.25.23.38Z"/>
        <path class="cls-6" d="m598.86,228.43c-.17-.28-.34-.56-.52-.83,0-.02-.01-.03-.03-.05.01.02.02.03.03.05.17.28.34.56.51.83Z"/>
        <path class="cls-6" d="m604.31,238.45c1.24-9.09.24-18.53-2.48-27.61.12.37.23.74.34,1.11.13.46.26.93.4,1.39.26.94.5,1.88.72,2.83.07.29.13.58.2.87,1.54,7.08,1.95,14.33.83,21.41Z"/>
        <path class="cls-6" d="m607.86,190.1c-.5-.73-1.01-1.46-1.53-2.17.53.71,1.04,1.44,1.53,2.17Z"/>
        <path class="cls-6" d="m618.99,217.94c-.05-.28-.11-.56-.17-.84-.03-.19-.07-.37-.11-.55.09.46.19.93.27,1.39Z"/>
        <path class="cls-6" d="m620.16,226.19c-.12-1.29-.27-2.56-.45-3.82-.09-.63-.18-1.25-.28-1.87-.09-.58-.19-1.14-.28-1.71.45,2.46.79,4.93,1.01,7.4Z"/>
        <path class="cls-6" d="m640.86,278.52c-.89,1.43-1.83,2.78-2.81,4.06-.29.38-.59.77-.9,1.14-1.35,1.69-2.79,3.25-4.28,4.73-.33.33-.67.65-1,.97-.67.63-1.35,1.26-2.05,1.86-.7.61-1.41,1.21-2.14,1.78,5.1-4.21,9.64-9.03,13.18-14.55Z"/>
        <path class="cls-6" d="m666.82,233.85c-.2-.11-.39-.22-.58-.33-.15-.09-.28-.17-.42-.25-2.58-1.53-4.75-3.09-6.27-4.67-.61-.63-1.11-1.26-1.49-1.9-.52-.73-.98-1.47-1.39-2.21,2.41,3.75,6,6.79,10.15,9.35Z"/>
        <path class="cls-6" d="m694.31,245.99c-2.84-1.16-6.06-2.44-9.41-3.81,3.4,1.32,6.64,2.55,9.41,3.81Z"/>
        <path class="cls-6" d="m700.38,248.66c-.1-.05-.2-.1-.3-.15-.39-.18-.8-.38-1.23-.57-.77-.35-1.61-.71-2.5-1.09-.65-.28-1.34-.57-2.04-.86,2.13.7,4.16,1.59,6.07,2.66Z"/>
        <path class="cls-6" d="m705.41,252.05c-.37-.29-.75-.58-1.14-.87,0,0-.01-.02-.02-.03.39.28.78.58,1.16.89Z"/>
        <path class="cls-6" d="m719.6,275.67c-.31-1.44-.69-2.87-1.15-4.28-.11-.36-.22-.71-.35-1.06-.27-.81-.57-1.6-.9-2.39-.33-.81-.69-1.61-1.06-2.39,1.58,3.2,2.75,6.62,3.46,10.13Z"/>
        <path class="cls-6" d="m720.64,292.61c-.34,4.6-1.21,9.15-2.85,13.35.15-.4.3-.82.44-1.25.28-.85.55-1.73.79-2.65.26-.98.5-2,.71-3.06.12-.58.22-1.16.32-1.75.2-1.18.36-2.4.5-3.65.03-.33.07-.66.09-.99Z"/>
        <path class="cls-6" d="m728.34,295.1c-.45,1.1-.95,2.19-1.5,3.25-.35.7-.73,1.39-1.12,2.07-.71,1.23-1.48,2.41-2.31,3.55-.38.53-.78,1.04-1.2,1.55,2.48-3.12,4.53-6.65,6.12-10.42Z"/>
        <path class="cls-6" d="m732.46,270.34c-.25-3.55-.86-7-1.84-10.23.3.91.57,1.87.8,2.87.17.73.33,1.49.46,2.27.28,1.63.48,3.33.58,5.1Z"/>
        <path class="cls-6" d="m745.13,286.09c-.99-1.49-1.96-2.91-2.92-4.32-.43-.63-.85-1.27-1.28-1.9-.21-.32-.43-.63-.63-.95-.32-.48-.63-.96-.95-1.45-.16-.24-.31-.49-.47-.73-.31-.5-.62-.99-.93-1.5-.15-.25-.31-.51-.46-.77-.2-.34-.41-.69-.61-1.04-.49-.85-.98-1.72-1.46-2.63,2.97,5.4,6.39,10.24,9.72,15.3Z"/>
        <path class="cls-6" d="m756.51,344.09c-1.47,1.08-3.09,2.1-4.84,3.05,1.76-.97,3.37-1.98,4.84-3.05Z"/>
        <path class="cls-6" d="m756.18,326.16c.1-2.49.09-5.02-.04-7.53,0-.02,0-.04,0-.06-.04-.93-.1-1.85-.18-2.76-.11-1.4-.26-2.79-.44-4.15,1.16,7.5,1.21,15.27-.09,22.7.22-1.49.39-3.03.52-4.59.09-1.05.16-2.11.2-3.19.01-.14.02-.28.02-.42Z"/>
        <path class="cls-6" d="m764.35,298.99c-1.97-4.41-4.4-8.68-7.01-12.75,2.8,4.23,5.16,8.51,7.01,12.75Z"/>
        <path class="cls-6" d="m766.38,332.29c-.71,1.55-1.56,3.03-2.56,4.46-.01.02-.03.04-.05.06.98-1.39,1.84-2.89,2.61-4.52Z"/>
        <path class="cls-6" d="m769.07,320.58c-.07,2.03-.31,4.01-.74,5.93-.15.66-.32,1.32-.51,1.97-.2.65-.41,1.3-.65,1.93-.24.63-.5,1.26-.78,1.88,1.65-3.88,2.49-7.8,2.68-11.7Z"/>
        <path class="cls-6" d="m785.55,317.48c-.77-1.8-1.65-3.61-2.61-5.39-.09-.17-.18-.33-.27-.49-1.28-2.33-2.72-4.61-4.27-6.81-.38-.54-.76-1.07-1.16-1.6-.81-1.08-1.65-2.14-2.5-3.17-.62-.75-1.26-1.49-1.92-2.2-.45-.5-.9-.98-1.35-1.45-.22-.23-.45-.46-.68-.69-.14-.14-.27-.27-.41-.4,6.55,6.12,11.86,13.88,15.17,22.19Z"/>
        <path class="cls-6" d="m787.39,378.54c-3.59,3.63-7.58,6.77-11.88,9.15,4.04-2.3,8.14-5.45,11.88-9.15Z"/>
        <path class="cls-6" d="m798.64,328.89c-1.82-4.02-3.97-7.59-5.85-10.11,2.28,2.84,4.22,6.31,5.85,10.11Z"/>
        <path class="cls-6" d="m802.16,348.51c.22-2.35.25-4.72.08-7.06.17,2.35.15,4.71-.08,7.06Z"/>
        <path class="cls-3" d="m226.46,442.02c-1.25-16.34,6.65-31.71,20.59-41.23-13.85,9.58-21.73,25-20.59,41.23Z"/>
        <path class="cls-3" d="m332.79,318.01c-.97.58-1.94,1.19-2.9,1.81.96-.63,1.94-1.23,2.9-1.81Z"/>
        <path class="cls-3" d="m345.49,311.64c-1.66.67-3.32,1.41-5,2.21,1.68-.81,3.34-1.55,5-2.21Z"/>
        <path class="cls-3" d="m420.84,341.22c-.34.63-.69,1.27-1.06,1.9.36-.63.72-1.26,1.06-1.9Z"/>
        <path class="cls-3" d="m504.56,181.68c-.27-.84-.52-1.69-.73-2.57.22.88.47,1.73.73,2.57Z"/>
        <path class="cls-3" d="m505.65,184.64c-.29-.69-.56-1.4-.81-2.13.26.73.53,1.44.81,2.13Z"/>
        <path class="cls-3" d="m509.02,144.78c-.55.81-1.06,1.64-1.55,2.48.48-.85.99-1.68,1.55-2.48Z"/>
        <path class="cls-3" d="m512.77,140.28c-.48.48-.95.97-1.39,1.47.44-.51.91-1,1.39-1.47Z"/>
        <path class="cls-3" d="m514.28,138.88c-.52.46-1.02.92-1.51,1.4.48-.48.99-.95,1.51-1.4Z"/>
        <path class="cls-3" d="m527.22,178.09c-2.21-1.34-4.22-2.8-6-4.46,1.78,1.65,3.79,3.11,6,4.46Z"/>
        <path class="cls-3" d="m578.9,173.89c-5.86-5.7-12.03-9.99-17.76-12.25,5.71,2.19,11.89,6.5,17.76,12.25Z"/>
        <path class="cls-3" d="m610.55,194.44c-2.45-4.28-5.29-8.18-8.5-11.7,3.23,3.52,6.07,7.43,8.5,11.7Z"/>
        <path class="cls-3" d="m604.31,238.45c1.12-7.08.71-14.33-.83-21.41,1.57,7.12,1.99,14.37.83,21.41Z"/>
        <path class="cls-3" d="m614.43,202.42c-.44-1.08-.92-2.15-1.41-3.2.5,1.04.96,2.12,1.41,3.2Z"/>
        <path class="cls-3" d="m673.63,237.32c-.93-.43-1.85-.87-2.74-1.32.89.44,1.81.89,2.74,1.32Z"/>
        <path class="cls-3" d="m696.35,246.85c-.65-.28-1.34-.56-2.04-.86.71.29,1.39.58,2.04.86Z"/>
        <path class="cls-3" d="m701.17,249.05c-.34-.17-.71-.36-1.1-.54.38.19.75.36,1.1.54Z"/>
        <path class="cls-3" d="m713.27,260.53c-1.02-1.49-2.14-2.93-3.39-4.31,1.26,1.37,2.39,2.82,3.39,4.31Z"/>
        <path class="cls-3" d="m718.22,304.71c-.69,2.13-1.51,4.01-2.4,5.58.87-1.58,1.69-3.46,2.4-5.58Z"/>
        <path class="cls-3" d="m751.43,296.51c-.25-.5-.51-.98-.77-1.45.26.46.53.95.77,1.45Z"/>
        <path class="cls-3" d="m754.12,304.16c-.22-.87-.46-1.72-.71-2.54.26.82.49,1.67.71,2.54Z"/>
        <path class="cls-3" d="m754.86,307.5c-.22-1.13-.46-2.23-.72-3.29.26,1.06.51,2.16.72,3.29Z"/>
        <path class="cls-3" d="m767.82,328.48c-.19.65-.41,1.3-.65,1.93.24-.63.45-1.28.65-1.93Z"/>
        <path class="cls-3" d="m775.51,387.69c-2.78,1.59-5.53,2.77-8.13,3.46,2.85-.93,5.56-2.09,8.13-3.46Z"/>
        <path class="cls-3" d="m792.79,318.77c-1.13-1.3-2.37-2.55-3.72-3.75.85.36,2.19,1.71,3.72,3.75Z"/>
        <path class="cls-8" d="m660.2,639.21c39,61.25,82.88,127.53,121.29,188.18,3.97,6.26,2.49,14.51-3.4,19.01-.07.05-.15.11-.22.17-6.57,5.01-16.01,3.43-20.58-3.45-37.73-56.75-88.37-133.22-127.61-192.28-13.2,4.31-26.75,7.84-40.6,10.53,2.21,30.85,4.4,61.71,6.61,92.56.52,7.4-4.69,13.96-12.01,15.13-.09.01-.19.03-.28.05-8.16,1.3-15.72-4.56-16.5-12.79-2.82-30.15-5.64-60.29-8.46-90.44-11.43,1.16-23.04,1.75-34.78,1.75-17.06,0-33.82-1.25-50.21-3.67-39.59,60.62-79.18,121.23-118.76,181.85-4.05,6.21-12.17,8.29-18.71,4.79-.09-.05-.17-.09-.25-.13-7.29-3.9-9.76-13.15-5.4-20.16,35.97-57.82,71.93-115.63,107.9-173.45-73.68-19-137.72-62-183.27-120.16-9.38-11.98-17.98-24.6-25.72-37.78-4.23-7.2-8.2-14.59-11.9-22.12,3.97,2.91,9.1,4.86,13.25,6.36,18.17,6.11,37.37,7.87,56.34,9.69,10.77.91,23.32,1.67,34.13,2.03,75.77,2.41,151.58-2.93,226.8-11.76,48.73-5.86,97.81-13.17,145.87-23.14,44.5-9.49,89.23-19.74,131.41-37.39,7.02-3.07,13.97-6.39,20.61-10.55,2.13-1.37,4.69-3.09,7.08-5.09,1.08-.9,2.12-1.85,3.09-2.85-.18.77-.36,1.53-.54,2.3-25.11,104.65-98.45,190.53-195.19,232.83Z"/>
        <path class="cls-8" d="m855.62,393.15c-.36,5.47-7.7,10.25-13.13,13.49-7.77,4.42-16.07,7.96-24.55,11.09-10.02-7.42-20.47-12.38-31.14-14.76-5.65-1.26-11.43-2.04-17.25-2.32-.35-2.14-.79-4.26-1.32-6.35,7.55-2.79,20.53-9.03,30.5-21.62h0c.21-.26.42-.54.63-.81.39.05.78.1,1.17.15,2.57.4,5.15.85,7.72,1.34,9.89,1.88,19.73,4.42,29.15,7.73,4.59,1.71,17.92,6.81,18.21,12.07Z"/>
        <path class="cls-9" d="m817.95,417.73c-2.53.94-5.08,1.84-7.63,2.71-8.12-5.43-16.48-9.13-24.96-11.02-4.87-1.09-9.85-1.79-14.86-2.09-.73-.05-1.46-.09-2.19-.11-.1,0-.2,0-.3,0-.84-.04-1.68-.05-2.52-.06l.05-6.61c.44,0,.89.01,1.33.02.11,0,.22,0,.34,0,.78.02,1.56.05,2.34.09,5.82.28,11.6,1.06,17.25,2.32,10.67,2.39,21.12,7.34,31.14,14.76Z"/>
        <path class="cls-5" d="m418.63,279c-1.34-1.16-7.41-6.7-8.13-15.86-.65-8.24,3.37-15.18,7.83-19.19,6.88-6.19,16.06-6.53,19.39-6.66,4.67-.18,6.49.73,10.87-.2,5.3-1.12,9.27-3.86,11.85-6.07-.18,2.6-.74,6.5-2.55,10.87-1.6,3.86-5.25,10.71-12.53,15.47-5.07,3.32-6.75,2.25-10.97,5.19-5.73,4-8.46,10.04-9.89,14.69-.75-3.04-1.26-7.21-.2-11.85,3.48-15.15,20.45-20.81,21.83-21.25-2.8-.56-8.05-1.21-14.1.59-2.85.85-11.27,3.35-15.37,11.36-5.55,10.82,1.57,22.3,1.96,22.91Z"/>
        <path class="cls-5" d="m681.23,83.67c-1.59-4.25-4.46-8.94-3.33-15.08.63-3.4,2.25-5.99,3.52-7.64-5.37,2.41-16.18,8.25-23.69,20.36-2.45,3.95-6.89,11.13-7.44,20.96-.52,9.42,2.93,14.29.39,22.91-1.49,5.09-4.27,8.75-6.27,10.97,3.15-.8,31.7-8.37,36.82-27.81,3.81-14.49,0-24.67,0-24.67Zm-21.1,37.12c3.05-3.9,4.36-7.44,4.94-9.36,2.23-7.38,1.04-14.87.59-17.77-.74-4.67-1.63-5.68-1.47-8.81.3-5.84,3.81-10.4,6.75-13.37-.7,2.23-1.57,5.71-1.61,9.99-.07,6.83,2,11.41,2.64,13.8,1.32,4.86-.05,12.65-11.85,25.52Z"/>
        <path class="cls-5" d="m840.03,235.63c.15-4.95,2.08-11.75,9.99-19.78-3.99,1.62-16.34,7.24-23.1,20.76-7.6,15.19-5.1,34.31,6.27,49.15,2.27-2.32,5.51-6.2,7.83-11.75,3.76-8.97,2.99-17.22,2.55-21.54-.99-9.53-3.71-10.61-3.53-16.84Zm-5.88,7.73c-1.38,7.28-1.46,13.62-1.17,18.41-1.16-2.11-4.8-9.4-3.14-18.89,1.76-10.09,8.31-15.86,10.09-17.33-2.06,4.38-4.37,10.4-5.78,17.82Z"/>
        <path class="cls-8" d="m243.9,481.76c-.39-.07-.77-.14-1.16-.22-7.54-1.57-27.5-5.49-28.23-14.29,0-.07.01-.37.15-.75.22-.73.61-1.53,1.03-2.31.85-1.55,1.88-3.07,3-4.49,1.61-2.05,3.48-3.89,5.56-5.43.07-.06.15-.11.22-.17,1.18,3.48,2.66,6.86,4.43,10.07,3.75,6.83,8.79,12.91,15,17.58Z"/>
        <path class="cls-12" d="m244.27,481.83c-.12-.02-.24-.05-.36-.07-6.21-4.67-11.24-10.75-15-17.58,4.22,7.12,9.86,13.3,15.36,17.65Z"/>
        <path class="cls-9" d="m454.3,525.04c-1.26-.45-.93-2.32.41-2.31,22.61.12,46.36-.36,71.15-1.62,22.64-1.15,44.34-2.87,65.03-4.99,2.47-.25,4.58,1.78,4.4,4.26-.04.5-.07,1.01-.11,1.52-.23,2.93-.5,5.77-.83,8.53-.2,1.7-1.45,3.08-3.12,3.44-19.62,4.22-47.74,7.84-81.04,4.09-22.13-2.49-40.99-7.61-55.89-12.91Z"/>
        <path class="cls-9" d="m606.88,570.93c-1.14,1.75-3.85.52-3.28-1.5,3.16-11.15,6.19-22.82,9.02-35.01,3.15-13.54,5.49-24.41,7.69-36.7.21-1.16,1.17-2.05,2.35-2.14s2.57-.36,3.33-.53c1.18-.27,2.19-.45,3.12-.66,1.72-.4,3.34.99,3.16,2.75-1.25,12.55-5.23,31.64-12.48,49.2-3.96,9.58-8.5,17.78-12.92,24.59Z"/>
        <path class="cls-9" d="m645.78,563.65c-1.1,1.7-3.73.5-3.18-1.45,3.06-10.82,6-22.14,8.75-33.96,3.06-13.13,5.33-23.68,7.46-35.61.2-1.13,1.13-1.99,2.28-2.07s2.49-.35,3.23-.52c1.14-.26,2.12-.43,3.03-.64,1.67-.39,3.24.96,3.07,2.66-1.21,12.18-5.07,30.69-12.11,47.73-3.84,9.3-8.24,17.25-12.53,23.86Z"/>
        <path class="cls-9" d="m683.08,555.68c-1.1,1.7-3.73.5-3.18-1.45,3.06-10.82,6-22.14,8.75-33.96,3.06-13.13,5.33-23.68,7.46-35.61.2-1.13,1.13-1.99,2.28-2.07s2.49-.35,3.23-.52c1.14-.26,2.12-.43,3.03-.64,1.67-.39,3.24.96,3.07,2.66-1.21,12.18-5.07,30.69-12.11,47.73-3.84,9.3-8.24,17.25-12.53,23.86Z"/>
        <path class="cls-9" d="m718.32,547.85c-1.1,1.7-3.73.5-3.18-1.45,3.06-10.82,6-22.14,8.75-33.96,3.06-13.13,5.33-23.68,7.46-35.61.2-1.13,1.13-1.99,2.28-2.07s2.49-.35,3.23-.52c1.14-.26,2.12-.43,3.03-.64,1.67-.39,3.24.96,3.07,2.66-1.21,12.18-5.07,30.69-12.11,47.73-3.84,9.3-8.24,17.25-12.53,23.86Z"/>
        <path class="cls-9" d="m751.61,540.02c-1.1,1.7-3.73.5-3.18-1.45,3.06-10.82,6-22.14,8.75-33.96,3.06-13.13,5.33-23.68,7.46-35.61.2-1.13,1.13-1.99,2.28-2.07s2.49-.35,3.23-.52c1.14-.26,2.12-.43,3.03-.64,1.67-.39,3.24.96,3.07,2.66-1.21,12.18-5.07,30.69-12.11,47.73-3.84,9.3-8.24,17.25-12.53,23.86Z"/>
        <path class="cls-9" d="m690.49,611.85c34.03-21.02,64.51-47.04,90.53-77.26.98-1.13,2.72.22,1.86,1.44-23.17,32.95-55.59,59.64-92.39,75.82h0Z"/>
        <path class="cls-9" d="m463.61,551.03c20.19,3.89,40.26,7.07,60.72,8.19,17.36,1.09,34.62.67,51.98-.4,1.12-.07,1.36,1.55.27,1.81-37.27,9.01-77.84,5.6-112.98-9.6h0Z"/>
        <path class="cls-8" d="m810.32,420.44c-3.01,1.03-6.02,2.03-9.03,3.01-9.54,3.06-19.19,5.81-28.89,8.37,0-.37,0-.75-.01-1.13,0-.44-.01-.88-.03-1.33-.01-.54-.03-1.08-.05-1.63-.03-.93-.08-1.89-.13-2.86-.19-3.21-.46-6.57-.79-9.84-.05-.54-.11-1.06-.17-1.59-.06-.59-.13-1.19-.2-1.78-.11-.97-.22-1.93-.33-2.86-.06-.5-.13-1-.19-1.48,5,.3,9.99,1,14.86,2.09,8.48,1.9,16.84,5.59,24.96,11.02Z"/>
        <path class="cls-1" d="m265.78,534.34l-87.25,18.93c-8.88,1.93-17.99-2.03-22.66-9.82h0c-7.43-12.42-.48-28.46,13.66-31.54l67.44-14.68"/>
        <ellipse class="cls-1" cx="548.23" cy="782.67" rx="177.98" ry="33.35" transform="translate(-51.59 38.8) rotate(-3.87)"/>
        <path class="cls-4" d="m802.16,348.51c-.13,1.34-.32,2.7-.56,4.02-1.1,5.9-3.33,11.57-6.57,16.8h0c-6.83,9.77-16.34,18.39-27.65,21.82-2.31-7.88-5.77-15.27-10.17-21.9-2.69-4.05-5.73-7.82-9.07-11.24-.6-.62-1.22-1.23-1.84-1.82-.04-.03-.07-.07-.11-.11-8.14-7.77-17.87-13.52-28.54-16.47-5.6-1.55-11.04-2.21-16.13-2.3h-.01c-10.83-.53-21.82,1.64-32.03,7.03-.44-.13-.89-.26-1.34-.39-.36-.11-.73-.2-1.1-.3-.52-.13-1.03-.26-1.55-.39-.44-.11-.88-.21-1.32-.3-.34-.08-.69-.15-1.03-.22-.48-.11-.96-.2-1.44-.29-6.91-1.29-13.49-1.43-19.54-.88-.46.03-.91.08-1.35.14-.34.03-.68.07-1.02.11-8.14.95-16.07,3.23-23.49,6.66-.24.11-.5.23-.74.34-.31.15-.61.28-.92.44-.26.13-.52.25-.77.38-.22.11-.45.22-.67.34-.22.11-.44.22-.65.33-.15.08-.28.15-.43.22-.67.35-1.32.71-1.95,1.06-.06.04-.11.07-.17.1-.38.22-.75.44-1.12.65-.36.21-.71.43-1.06.64-2.27,1.42-4.48,2.97-6.58,4.61-5.86-2.23-12.18-3.44-18.64-3.77-.31-.02-.63-.03-.94-.05-.66-.04-1.32-.07-1.97-.08-11.53-.29-21.66,2.26-29.33,5.16-.61.22-1.2.46-1.78.69-6.21,2.45-11.9,5.59-16.67,9.26-6.29-2.05-13.18-2.91-20.2-2.83-.2,0-.42,0-.62,0-.28,0-.56,0-.83,0-.08,0-.16,0-.24,0-12.21.24-22.76,3.38-30.41,6.57-.04.02-.08.03-.11.05-.21.09-.42.18-.62.26-.09.04-.19.07-.28.12-4.35,1.83-8.35,3.96-11.82,6.29-.55-.17-1.1-.33-1.65-.49-.41-.11-.82-.22-1.24-.34-.47-.13-.95-.24-1.42-.36h-.01c-.48-.12-.95-.22-1.43-.34-.97-.22-1.95-.43-2.93-.61-7.71-1.43-15.02-1.53-21.7-.83-.52.05-1.03.11-1.55.17-8.68,1.01-17.15,3.47-25.06,7.2-.19.08-.38.17-.56.26-.18.09-.36.17-.54.25-.24.11-.49.23-.73.35-.24.12-.49.24-.73.36-.03.01-.06.03-.09.04-.17.08-.32.17-.48.24-.42.22-.83.43-1.24.65-.05.03-.11.06-.17.09-.58.31-1.15.63-1.71.95-.17.1-.34.19-.51.29-.05.03-.11.07-.17.09-.33.19-.65.38-.97.57-.23.15-.46.28-.69.42-.34.2-.66.42-.98.62-2.28,1.47-4.5,3.07-6.61,4.77-8.35-2.5-16.62-3.74-24.74-3.7h-.09c-8.07.05-16.01,1.35-23.76,3.93-5.02,1.67-9.56,3.72-13.62,5.98-.17.09-.34.18-.52.28-.02.01-.04.02-.06.03-6.89,3.73-13.12,8.42-18.23,13.89-1.96.47-3.85,1.23-5.62,2.21-.04.01-.07.03-.11.06-1.3.73-2.54,1.57-3.71,2.49-.02.02-.05.04-.07.06-5.57,4.11-9.46,9.84-11.74,16.3-1.78,4.45-2.57,8.84-2.74,12.95-.11,2.86.07,5.59.43,8.12,0,.03,0,.06.01.09.89,6.11,2.84,11.04,4.14,13.81,1.31,2.81,2.91,5.47,4.77,7.93.96,1.28,1.99,2.49,3.09,3.66.1.11.2.21.31.32,1.2,1.22,3.04,2.74,5.16,4.34.22.17.44.33.65.5-18.55-.4-37.25-1.39-55.52-3.83-28.76-19.29-35.42-62.16-4.59-82.26,9.83-6.68,21.95-10.28,36.25-9.79,1.24.04,2.18-.4,2.8-1.12,2.29-2.74.87-9.08,2.15-12.89,2.04-11.16,7.03-21.62,13.65-30.78,4.44-6.15,9.64-11.77,15.32-16.79,11.14-9.66,24.16-17.63,38.6-21.06-7.22,3.73-12.27,11.53-15.89,18.62-1.2,2.58-2.4,5.25-2.62,8.11,12.84-19.73,36.14-4.61,39.83-38.06,0,0,0-.01,0-.01.48-6.23-.5-12.7-3.55-18.2h0c-.93-1.65-2.05-3.2-3.38-4.53,13.68,9.34,21.85,25.08,22.66,41.46.43,6.89-.31,13.83-2.02,20.51-3.26,12.78-10.18,24.71-20.06,33.49,4.3.59,8.69.57,12.98-.11,22.51-3.79,40.88-24.98,42.83-47.48,6.19,6.53,9.48,16.61,9.11,25.55,15.6-25.09-11.33-50.96,23.79-73.43-3.39,3.7-6.5,18.97-3.45,25.73,1.2,4.14,6.58,5.13,9.33,1.88,7.57-7.34,6.91-17.97,6.75-19.97,2.73,2.19,3.46,5.24,4.22,8.28,1.24,5.06,5.33,9.01,10.48,9.81,10.53,1.64,23.11-4.05,31.6-8.72,0,0,0,0,.01,0,2.84-1.7,5.33-3.52,7.31-5.35t0,0c26.43-22.16,16.88-61.79-6.23-82.06,0,0,0,0,0,0-12.29-11.7-19.67-27.1-16.4-44.21.98-5.59,3.07-11.07,6.45-15.67.56-.75,1.16-1.51,1.78-2.22,0,0,0,0,0-.01.89-1.02,1.88-1.98,2.91-2.87-1.14,5.95-1.86,12.39-1.13,18.32,0,0,0,.01,0,.02.11.9.25,1.77.42,2.61t0,0c1.49,8.79,8.02,15.53,15.74,19.46,13.63,7.1,28.74,11.27,41.56,19.95,14,9.03,25,22.29,32.42,37.16.33.63.7,1.39,1.02,2.05,4.16-30.28-16.31-64.28-43.18-76.81,14.74,2.28,28.98,8.76,39.41,19.51.52.52,1.01,1.04,1.51,1.58h0c.81.89,1.59,1.79,2.35,2.72,0,0,0,0,0,0,9.66,11.81,14.63,26.87,15.86,41.95.47,26.03,12.06,32.97.11,61.52-1.11,3.42-2.39,7.36-3.83,12,13.26-7.98,25.34-19.23,29.96-34.47,3.13-11.47-1.66-15.47.2-29.96,1.21-9.46,4.41-16.87,6.85-21.54,4.39,33.54,58.19,18.91,66.04,60.71,0,0,0,0,0,.01.51,2.31.85,4.66,1.05,7.01,0,0,0,0,0,.01.6,10.21-.5,21.31-6.39,29.97,2.78-1.77,5.27-3.99,7.42-6.5,10.22-12.53,13.42-30.73,8.94-46.07,4.72,14.24,14.84,24.51,21.44,37.78,5.41,15.59,6.12,33.87-.4,49.25,6.32-3.38,11.76-8.31,14.72-14.84,6.84-15.51-.23-32.54-9.04-46.06,17.32,8.65,30.21,27.53,31.92,46.8,3.59-3.82,3.34-14.45-.2-18.02,1.33,1.06,2.58,2.33,3.72,3.75,0,0,0,0,0,0,5.67,7.74,10.87,19.45,9.37,29.73Z"/>
        <path class="cls-10" d="m842.92,179.12c-15.54,24.45-31.21,28.77-50.14,34.08,3.89,19.61-13.53,40.01-23.88,44.06,23.44-19.21,12.62-60.25-25.07-65.6,18.26,6.78,33.55,29.15,23.69,50.91-12.27,22.19-1.24,41,18.41,45.24-2.28-6.19-1.91-18.29,0-23.3,1.79,17.88,14.9,24.45,21.94,36.22,10.79,17.49,6.41,49.66-6.89,68.93-.25.36-.51.73-.77,1.08-.05.07-.11.15-.17.22-.22.3-.44.61-.67.91-.2.27-.42.54-.63.81h0c-9.97,12.59-22.95,18.84-30.5,21.62-.26-1.06-.55-2.1-.86-3.14,11.31-3.43,20.82-12.04,27.65-21.82h0c3.24-5.23,5.47-10.9,6.57-16.8.24-1.33.44-2.68.56-4.02,1.49-10.28-3.7-21.99-9.37-29.73,0,0,0,0,0,0-1.14-1.42-2.39-2.7-3.72-3.75,3.54,3.56,3.79,14.2.2,18.02-1.71-19.27-14.61-38.15-31.92-46.8,8.81,13.52,15.88,30.55,9.04,46.06-2.95,6.53-8.39,11.47-14.72,14.84,6.52-15.38,5.8-33.66.4-49.25-6.6-13.27-16.72-23.55-21.44-37.78,4.47,15.35,1.28,33.54-8.94,46.07-2.14,2.51-4.63,4.73-7.42,6.5,5.9-8.66,6.99-19.75,6.39-29.97,0,0,0-.01,0-.01-.2-2.35-.54-4.7-1.05-7.01,0,0,0-.01,0-.01-7.86-41.8-61.65-27.17-66.04-60.71-2.44,4.67-5.64,12.07-6.85,21.54-1.86,14.49,2.93,18.49-.2,29.96-4.62,15.24-16.69,26.49-29.96,34.47,1.43-4.64,2.72-8.57,3.83-12,11.96-28.55.36-35.5-.11-61.52-1.24-15.08-6.21-30.14-15.86-41.95,0,0,0,0,0,0-.77-.93-1.55-1.83-2.35-2.71h0c-.5-.54-.99-1.07-1.51-1.59-10.43-10.75-24.67-17.23-39.41-19.51,26.87,12.53,47.33,46.53,43.18,76.81-.32-.65-.69-1.41-1.02-2.05-7.42-14.88-18.41-28.13-32.42-37.16-12.82-8.68-27.94-12.84-41.56-19.95-7.71-3.93-14.25-10.67-15.74-19.46t0,0c-.17-.84-.32-1.71-.42-2.61,0,0,0-.01,0-.02-.73-5.93-.01-12.37,1.13-18.32-1.03.89-2.02,1.85-2.91,2.87,0,0,0,.01,0,.01-.62.71-1.22,1.47-1.78,2.22-3.38,4.6-5.47,10.08-6.45,15.67-3.28,17.1,4.11,32.51,16.4,44.21,0,0,0,0,0,0,23.11,20.27,32.66,59.9,6.23,82.06t0,0c-1.98,1.84-4.47,3.65-7.31,5.35,0,0,0,0-.01,0-8.5,4.67-21.08,10.36-31.6,8.72-5.15-.8-9.24-4.76-10.48-9.81-.75-3.04-1.49-6.09-4.22-8.28.16,2,.81,12.63-6.75,19.97-2.74,3.24-8.13,2.26-9.33-1.88-3.05-6.76.06-22.03,3.45-25.73-35.12,22.47-8.2,48.34-23.79,73.43.37-8.94-2.91-19.02-9.11-25.55-1.94,22.5-20.32,43.69-42.83,47.48-4.29.67-8.68.69-12.98.11,9.88-8.78,16.79-20.71,20.06-33.49,1.71-6.68,2.45-13.63,2.02-20.51-.81-16.38-8.98-32.13-22.66-41.46,1.33,1.33,2.45,2.88,3.38,4.52h0c3.05,5.51,4.03,11.98,3.55,18.21,0,0,0,0,0,.01-3.69,33.45-26.98,18.33-39.83,38.06.22-2.85,1.42-5.53,2.62-8.11,3.62-7.08,8.67-14.89,15.89-18.62-14.45,3.43-27.47,11.39-38.6,21.06-5.68,5.02-10.88,10.64-15.32,16.79-6.62,9.16-11.61,19.62-13.65,30.78-1.28,3.81.15,10.16-2.15,12.89-.61.72-1.56,1.16-2.8,1.12-14.3-.49-26.42,3.11-36.25,9.79-30.83,20.09-24.17,62.96,4.59,82.26-2.47-.35-4.94-.75-7.38-1.22-.12-.02-.24-.05-.36-.07-6.21-4.67-11.24-10.75-15-17.58-1.76-3.21-3.24-6.59-4.43-10.07-.25-.74-.5-1.49-.71-2.25-7.36-24.51-.27-53.29,25.44-64.25,19.21-12.05,31.02-47.98,34.45-65.54,2.41,7.12,3.69,18.63,3.13,25.46,8.14-22.58,19.36-31.33,37.6-40.2,14.54-5.58,16.55-3.46,22.33-8.37,9.86-6.78,17.45-26.44,7.05-40.34,50.41,10.64,58.61,69.99,47,95.17,5.88-2.5,10.59-8.31,9.6-15.03-4.52-57.16,38.38-56.94,71.28-88.76-2.78,6.52-5.55,25.89,2.15,32.51,4.41,3.47,12.3,5.2,19.64,3.28,35.83-14.53,39.32-50.85,13.07-64.97,8.21,5.68,13.28,22.17,5.88,32.51,1.57-10.92-6.22-24.09-13.52-29.77-42.68-49.09-8.25-107.95,30.94-116.12-13.99,12.93-18.6,44.84-7.83,61.68,4.49-12.62,18.29-25.59,33.27-21.37,44.66,7.16,64.54,59.62,62.29,79.72,1.32-6.81,4.85-14.45,10.96-20.17,7.93-7.42,11.77-7.45,14.96-13.51,2.45-4.65,5.66-12.12.07-22.77,13.03,9.55,7.05,20.22,19.24,29.42-5.73-19.2,4.26-42.67,24.09-52.67,17.66-9.15,25.19-9.71,36.22-31.92.44,10.55-5.9,30.21-11.55,37.79,22.51-8.7,44.33-31.24,34.08-56.59-4.09-11.15-10.51-12.21-16.45-22.91-28.63-53.03,45.99-84.11,76.76-71.28-21.03-2.43-68.48,26.66-39.16,62.27,13.76,19.16,22.45,18.12,31.13,32.7,11.69,16.71,9.72,50.35-3.72,65.99,28.4-11.9,30.56-48.87,24.28-62.86,14.88,11.24,32.12,48.18,14.49,78.13Z"/>
        <path class="cls-11" d="m262.17,487.65c-5.05-2.71-14.49-8.84-18.8-19.97-6.91-17.84,2.04-41.55,23.5-56.4-2.56,2.77-7.06,8.4-9.4,16.84-2.93,10.6-.74,19.46.39,23.11.21-3.44,1.33-14.22,9.79-23.89,9.57-10.94,21.94-12.91,25.07-13.32-1.11-6.81-1.83-17.14,1.17-28.98,6.4-25.28,25.08-39.09,30.94-43.08-2.99,3.78-7.3,10.22-9.79,19.19-3.6,12.97-1.38,23.92,0,28.98.24-3.88,1.09-10.22,4.31-17.23,1.5-3.27,7.36-15.6,20.37-21.93,7.35-3.58,9.81-1.74,17.23-4.31,7.08-2.44,16.32-8.07,25.07-22.32-.57,3.82-1.44,7.9-2.74,12.14-6.23,20.3-19.01,33.89-27.81,41.51,7.24.98,17.02,1.4,28.2-.78,24.81-4.84,40.81-19.43,47.39-26.24-.34,2.46-1.24,6.59-3.92,10.97-3.16,5.15-7.19,8.04-9.4,9.4,2.8-.82,7.07-2.32,11.75-5.09,14.06-8.31,18.95-20.45,25.07-28.98,6.11-8.52,17.49-19.1,40.73-25.85-6.32,3.26-16.87,9.76-26.24,21.54-10.91,13.72-14.64,27.63-16.06,34.86,3.28-7.23,11.41-22.52,28.59-34.46,12.31-8.56,19.03-6.78,33.29-13.71,5.78-2.81,34.21-16.62,44.65-44.26,12.45-32.97-8.33-65.51-11.36-70.1,11.89,7.06,18.36,15.3,21.93,21.15,15.97,26.18,10.18,64.31-13.71,97.13,5.15-3.42,10.54-7.77,15.67-13.32,23-24.89,24.7-56.64,24.67-68.93,2.09,8.08,3.8,18.32,3.52,30.16-.7,30.31-13.94,52.67-21.15,63.05,6.8-7.23,18.08-17.44,34.46-25.46,21.3-10.43,40.8-12.05,51.7-12.14-6.98.67-16.77,2.48-27.42,7.44-18.54,8.64-29.24,21.99-34.07,28.98,6.85.59,19.85,1.84,30.94-1.17,19.79-5.38,27.24-9.83,33.98-14.69,17.03-12.28,17.73-40.76,17.72-55.81,3.3,5.04,7.37,12.71,9.4,22.72,4.33,21.32-3.54,38.61-6.66,44.65,5.06.49,15.77.8,27.41-4.7,17.03-8.05,24.06-22.89,25.85-27.02,5.48,6.85,7.54,18.09,8.09,26.52.94,14.49-5.19,23.33-6.91,33.4,2.26.45,14.21,2.58,25.46-5.09,13.21-9.02,14.38-24.02,14.49-25.85,1.97,4.75,3.9,11.32,3.92,19.19.05,23.63-17.23,39.24-20.76,42.3-1.75-4.4-4.64-10.46-9.4-16.84-3.7-4.95-18.72-24.42-45.23-28.39-14.98-2.25-27.35,1.39-34.27,4.11-7.97-1.41-20.68-2.66-35.84.19-15.99,3.01-27.87,9.3-34.85,13.71-7.49-1.91-22.03-4.54-39.56-.59-14.41,3.25-24.83,9.59-30.79,13.88-6.45-1.93-17.58-4.35-31.29-2.71-16.44,1.97-28.23,8.78-34.07,12.73-6.54-2-20.78-5.39-38.19-1.57-15.75,3.46-26.5,11.16-31.72,15.47-6.72-1.94-15.78-3.65-26.44-3.13-26.3,1.27-44.6,15.24-51.5,21.15-3.53,1.08-13.4,4.62-20.17,14.49-11.32,16.5-3.56,35.49-2.74,37.4,5.52,12.9,16.19,18.93,19.78,20.76l-54.24-.78Z"/>
        <g>
          <path class="cls-13" d="m390.65,485.49c-1.34.07-2.67.13-4,.19-21.76.98-43.52,1.5-65.28,1.37-2.89-.01-5.78-.04-8.66-.09-6.42-4.41-13.94-11.82-17.43-23.49-6.24-20.84,5.76-37.36,7.05-39.07,2.88-2.03,7.35-4.67,13.22-6.17,4.52-1.16,8.96-1.42,13.21-1.05,12.45,1.08,23.34,7.5,30.08,12.42,3.03,2.21,5.23,4.11,6.35,5.08,18.37,15.93,23.87,39.03,25.48,50.81Zm164.07-102.02c-2.54-1.59-5.53-3.24-8.9-4.81-3.88-1.8-8.27-3.48-13.08-4.81-9.75-2.7-21.23-3.99-33.64-1.93-11.68,1.93-20.77,6.25-26.73,9.76h0c-.58.34-1.13.68-1.65,1,4.36,2.35,11.55,6.6,19.34,13.4,4.9,4.28,10.05,9.58,14.9,16.05.03.03.04.05.06.08,2.08,2.8,4.11,5.81,6.03,9.05.28.46.55.93.81,1.4,7.22,12.67,10.79,26.26,12.5,37.66.79,5.26,1.18,10.06,1.36,14.08,1.08-.12,2.15-.24,3.22-.37,17.16-1.98,34.3-4.12,51.23-6.36,3.13-.42,6.27-.83,9.4-1.26,1.25-.17,2.5-.34,3.75-.52,0-.18,0-.36,0-.54.28-32.91-14.13-66.54-38.6-81.9Zm-34.82,59.69c-2.03-7.22-4.72-14.12-8.04-20.49-3.7-7.11-8.18-13.56-13.38-19.04,0,0-.01-.01-.02-.02-2.62-2.77-5.43-5.29-8.41-7.52-2.48-1.86-5.07-3.53-7.79-4.97-5.73-3.05-11.57-5.13-17.2-6.53-.05-.01-.1-.03-.15-.04-6.2-1.53-12.11-2.23-17.31-2.48h-.32c-10.08-.46-17.37.81-18.49,1.02-15.54,2.9-26.77,9.71-32.9,14.1,9.7,5.6,27.02,17.32,41.52,38.38,11.84,17.22,17.17,33.98,19.67,45.54,1.14-.09,2.28-.18,3.42-.28,2.45-.2,4.89-.4,7.34-.61,17.6-1.47,35.38-3.26,53.16-5.25,1.13-.13,2.26-.25,3.39-.38-.14-10.7-1.67-21.36-4.5-31.41Zm248.11-35.96c-.3-2.17-.67-4.4-1.14-6.65-2.37-11.41-7.09-23.47-15.94-33.73-4.08-4.73-19.73-22.85-45.63-24.87-14.21-1.1-25.53,3.1-31.52,5.88.17.09.34.19.53.29,6.56,3.62,19.9,11.95,31.53,27.25,2.91,3.82,5.71,8.08,8.27,12.8,10.68,19.69,12.33,41.57,12.09,54.64.88-.19,1.76-.38,2.64-.57,9.72-2.13,19.41-4.36,29.07-6.7,2.15-.54,4.31-1.08,6.46-1.63,1.4-.36,2.8-.71,4.19-1.08.57-6.4.84-15.55-.55-25.63Zm-70.83-39.63c-6.51-7.82-13.84-13.65-21.65-16.84-.84-.34-1.69-.65-2.53-.94-17.32-5.74-35.05-2.94-35.05-2.94-16.7,2.63-28.28,10.35-33.68,14.49,3.9,2.4,11.02,7.1,18.76,14.49,2.21,2.11,4.46,4.43,6.69,6.99.02.02.04.05.07.07,7.44,8.48,14.75,19.46,19.72,33.28,2.81,7.82,4.41,16.19,5.25,24,.64,5.89.85,11.45.81,16.21.09,0,.17-.03.24-.04,1.31-.22,2.62-.44,3.92-.67,20.47-3.52,40.88-7.41,61.2-11.74,1.39-.29,2.78-.59,4.16-.89-2.77-30.33-13.3-57.92-27.92-75.48Zm-42.03,71.44c-1.43-13.36-5.42-29.5-15.25-43.78-3.2-4.65-6.63-8.74-10.12-12.33-.03-.02-.05-.05-.07-.07-1.2-1.22-2.4-2.38-3.6-3.49-12.75-11.71-25.74-17.18-31.64-19.37-4.04-.92-10.5-2.03-18.45-1.77h-.01c-5.07.16-10.75.87-16.79,2.56-9.24,2.57-16.4,6.6-21.38,10.03-1.07.74-2.04,1.45-2.9,2.11.3.14.61.28.94.44,1.14.55,2.39,1.14,3.73,1.84.03.01.06.02.09.03,1.9.98,3.96,2.13,6.13,3.45,8.41,5.12,18.54,12.93,27.5,24.59,16.14,21.03,19.48,46.95,20,62.12,0,.18.01.36.02.54,1.37-.18,2.74-.38,4.12-.57,18.15-2.53,36.28-5.28,54.37-8.31,1.25-.21,2.5-.42,3.74-.63.09,0,.17-.03.24-.04.15-4.72.06-10.69-.66-17.34Zm-200.3,35.91c-.82-.42-.58-11.65-3.27-16.43-34.52-61.31-60.93-62.39-77.41-64.45-8.73-1.09-22.13,2.94-32.11,5.83-.88.25-10.7,6.34-12.39,7.76-.03.01-.07.03-.11.05-.19.15-.37.3-.56.45-3.16,2.54-6.32,5.1-9.47,7.65,1.37.12,4.69.45,9.19,1.39,7.75,1.63,19.05,5.07,30.08,12.42,6.91,4.59,13.71,10.72,19.48,18.89,9.71,13.75,12.65,27.86,13.54,36.94.91-.04,1.82-.09,2.74-.13,19.36-.97,38.7-2.29,58.01-3.84,1.15-.09,2.29-.18,3.44-.28-.39-2.09-.78-4.17-1.17-6.26Z"/>
          <path class="cls-7" d="m381.62,479.62c-7.86-17.11-18.81-32.42-33.73-43.97-4.88-3.86-10.11-7.32-15.62-10.66,13.54,2.87,25.79,11.03,34.68,21.59,7.8,9.33,13.37,20.93,14.66,33.04h0Zm21.74-85.92c9.63,4.92,25.91,14.93,39.36,33.49,7.5,10.35,11.97,20.38,14.69,28.2.47-2.03,1.32-2.77,1.91-3.08,2.72-1.44,8.05,1.86,13.22,8.52.28-4.49.14-10.07-1.17-16.3-3.26-15.43-11.84-25.77-16.6-30.69,5.48,2.67,12.1,6.59,18.8,12.34,12.78,10.97,19.66,23.29,23.2,31.14.55-3.03.96-6.7.88-10.87-.14-6.88-1.56-12.56-2.94-16.6,2.76,4.14,5.92,9.69,8.52,16.6,2.81,7.47,4.1,14.19,4.7,19.39,1.55-3.91,2.93-8.64,3.52-14.1,2.18-19.86-7.44-35.37-11.46-41.12-4.37-6.46-11.72-15.11-23.2-21.25-33.36-17.83-70.02,2.4-73.43,4.36Zm297.4-23.35c6.38,5.83,15.46,15.7,22.03,30.25,3.42,7.56,5.34,14.6,6.46,20.41,1.34-4,2.63-9.54,2.5-16.16-.31-15.7-8.42-26.77-11.75-30.84,4.73,4.94,11.4,13.13,16.3,24.82,3.74,8.91,5.25,16.98,5.87,22.91.41-5.3,1.73-9.24,2.79-11.75.92-2.18,1.67-3.32,1.91-3.67,2.41-3.58,5.61-5.49,7.64-6.46-1.05.8-3.17,2.68-3.97,5.73-.97,3.72.36,7.88,3.43,11.04.87.89,1.83.2,2.69-.7,1.31-1.37,2.66-4.53,2.7-8.68.13-12.42-6.66-36.52-14.29-41.91-2.81-3.7-13.4-16.73-32.7-21.3-19.7-4.66-35.28,2.63-39.36,4.7,9.25,7.2,18.51,14.39,27.76,21.59Zm-46.07,70.02c1.55-4.34,3.24-10.69,3.33-18.47.14-12.18-3.7-21.53-6.17-26.44,3.83,3.62,8.55,9.01,12.34,16.45,1.53,3.01,2.67,5.89,3.52,8.52.35-3.59.4-7.87-.29-12.63-1.98-13.6-8.88-23.16-12.92-27.9,4.15,3.75,9.36,9.24,14.1,16.74,5.62,8.89,8.47,17.26,9.99,23.2.67-3.25,1.1-7.36.59-12.04-1.56-14.21-10.74-23.38-14.1-26.44,4.05,2.11,10.61,6.21,16.45,13.51,7.5,9.38,9.78,19.03,10.57,23.79.44-3.72.6-8.83-.59-14.69-2.24-11-7.98-18.46-11.16-22.03,4.99,4.62,10.91,11,16.45,19.39,7.33,11.1,11.29,21.64,13.51,29.37.28-6.99-.15-15.42-2.35-24.67-6.82-28.72-26.06-46.31-34.76-53.31-5.5-2.46-17.86-7.09-33.88-5.48-17,1.71-28.68,9.5-33.49,13.12,5.42,4.03,11.1,8.92,16.64,14.88,21.48,23.08,29.16,49.39,32.21,65.12Zm-111.52-74.71c-2.53,1.96-5.19,4.6-7.64,8.18,20.56,6.71,28.79,10.82,35.25,16.84,8.62,8.03,19.89,17.02,26.34,41.91.19.74.7,1.37,1.39,1.71l11.92,5.82c1.57.77,3.44-.19,3.73-1.91.89-5.33,1.43-13.71-1.47-23.24-4.39-14.43-13.98-22.63-17.62-25.46,5.83,3.84,15.6,11.43,23.11,24.28,4.68,8.02,7.01,15.57,8.22,21.15.54-3.13,1-7.96,0-13.71-1.08-6.21-3.41-10.89-5.09-13.71,2.92,2.86,6.95,7.49,10.18,14.1,3.03,6.2,4.29,11.97,4.82,16.25.19,1.55,1.71,2.58,3.23,2.2.31-.08.62-.16.93-.23,1.34-.34,2.2-1.66,1.94-3.02-.32-1.67,5.33-24.06-22.66-56.08-3.88-4.43-9.83-10.45-19.19-15.91-3.72-1.64-36.34-15.49-57.38.83Zm-18.99,94.73c2.13-.61,4.25-1.22,6.38-1.82,2.86-.82,4.81-3.46,4.71-6.43-.11-3.39-.63-7.56-2.09-12.11-2.17-6.79-5.52-11.64-7.83-14.49,2.48.52,7.65,1.95,12.53,6.27,4.05,3.58,6.09,7.53,7.05,9.79.01-3.24-.31-7.43-1.57-12.14-1.97-7.37-5.36-12.77-7.83-16.06,4.1,2.48,11.61,7.77,17.62,17.23,6.32,9.94,7.8,19.47,8.22,24.28,1.3-3.17,2.79-7.87,3.13-13.71.5-8.44-1.63-15.11-3.13-18.8,3.17,3.56,10.34,12.47,13.14,21.2,1.59,4.94,1.86,6.02,2.35,12.92,2.14-8.03,4.69-19.31.03-33.42-4.86-14.73-16.4-30.33-21.52-36.72-4.63-4.32-16.85-10.72-26.6-13.97-27.7-9.24-52.69,6.49-56.69,9.11,5,2.91,10.18,6.47,15.27,10.87,25.99,22.41,34.02,52.65,36.81,68Zm-192.3-57.33c8.93,2.45,22.82,7.56,36.42,18.8,24.61,20.34,31.66,47,33.68,56.4,1.65-4.01,3.4-9.79,3.52-16.84.29-16.88-8.99-28.79-12.14-32.51,4.28,2.83,9.8,7.2,14.88,13.71,9.52,12.19,12.1,24.9,12.92,31.33,1.13-8.4,1.3-19.38-2.74-30.94-8.47-24.2-30.47-37.22-29.76-36.81,9.7,5.64,26.81,15.12,38.38,34.46,8.66,14.49,10.94,26.18,13.95,35.44,1.91-27.99-10.54-51.38-14.4-56.45-18.43-24.22-22.47-17.58-52.43-25.6-5.85.51-12.29,1.37-19.19,2.74-8.68,1.73-16.41,3.95-23.11,6.27Z"/>
          <path class="cls-8" d="m772.4,431.82c-1.28.34-2.56.68-3.84,1.01-1.39.36-2.79.72-4.19,1.08.08-9.42-1.17-22.05-2.41-30.53-.5-3.42-1.24-6.78-2.19-10.04-1.72-5.92-4.18-11.51-7.22-16.65h0s0-.02-.01-.03c-1.58-2.68-3.34-5.23-5.23-7.65-8.27-10.51-19.3-18.32-31.76-21.76-14.14-3.91-27-1.45-35.33,1.31,9.85,4.82,18.8,11.93,26.11,20.52,7.2,8.45,12.79,18.35,16.06,28.93.46,1.51.91,3.08,1.32,4.71h0c3.05,12,4.75,26.96,5.14,39.52-.88.19-1.76.38-2.64.57l-1.11.24c-1.39.3-2.78.6-4.16.89-.38-14.22-2.37-31.46-6.13-43.59-3.62-11.7-10.36-22.46-19.03-31.04-5.64-5.59-12.11-10.25-19.07-13.65,0,0,0,0-.01,0-2.64-1.29-5.35-2.39-8.1-3.29-2.72-.89-5.52-1.61-8.33-2.13-23.63-4.39-42.91,6.13-48.25,9.46-.76.48-1.51.96-2.25,1.47,5.89,2.97,11.55,6.85,16.86,11.55,5.06,4.47,9.79,9.68,14.13,15.56,8.47,11.5,13.56,27.46,16.34,43.21h0c1.47,8.37,2.31,16.66,2.65,24.2-1.3.22-2.61.45-3.92.67-.08.01-.16.03-.24.04-1.24.22-2.49.42-3.74.63-.89-20.84-5.52-47.82-17.47-64.04-5.8-7.87-12.37-14.43-19.4-19.42-3.15-2.24-6.38-4.16-9.7-5.76h0c-1.55-.75-3.11-1.42-4.68-2.02h0s0,0,0,0c-3.56-1.36-7.32-2.42-11.2-3.14-23.53-4.39-42.83,6.09-48.22,9.44,4.38,1.9,8.64,4.26,12.75,7.02h0c1.71,1.15,3.4,2.37,5.04,3.66h0c8.2,6.4,15.53,14.44,21.43,23.65,11.25,17.54,15.87,41.73,17.08,58.93-1.37.2-2.74.39-4.12.57h-.02c-1.25.18-2.5.34-3.75.52-1.11-16.3-5.45-39.47-15.87-55.75-2.91-4.55-6.21-8.78-9.79-12.63,0,0,0,0,0,0-6.89-7.4-14.86-13.4-23.32-17.51h-.01c-2.91-1.41-5.89-2.6-8.9-3.54l-.15-.05h0c-2.51-.79-5.15-1.44-7.85-1.94-21.12-3.93-39,3.38-47.49,7.9,2.89,1.35,5.71,2.88,8.45,4.6h0c13.95,8.72,25.85,22.04,33.87,38.29,4.71,9.53,7.93,21.64,9.44,33.51.65,5.04.98,10.02.99,14.74-1.07.13-2.14.25-3.22.37-.44.05-.89.11-1.33.15-1.13.13-2.26.26-3.39.38.11-15-3.3-32.9-9.6-45.65-2.34-4.73-5.03-9.19-8.02-13.32,0,0,0,0,0-.01,0,0,0-.01-.01-.02,0-.01-.01-.02-.02-.03-8.64-11.93-19.76-21.16-32.07-26.52-1.71-.74-3.42-1.41-5.17-2-3.08-1.04-6.27-1.86-9.47-2.46-24.88-4.64-45.19,6.3-51.07,9.95-.05.03-.11.06-.16.09-1.07.67-2.13,1.37-3.16,2.09,1.66.83,3.29,1.73,4.9,2.68,27.26,16.05,47.84,48.54,53.35,81.08-1.14.1-2.28.19-3.42.28-.36.03-.72.06-1.08.09-1.15.1-2.29.19-3.44.28-.09-.52-.18-1.04-.28-1.55-.44-2.32-.97-4.63-1.57-6.94-7.75-29.68-28.33-57.87-54.27-69.92-.74-.34-1.55-.65-2.33-.93-.18-.07-.35-.13-.52-.19l-.34-.11c-22.11-7.19-40.12-3.69-53.39,2.53-2.82,1.32-5.42,2.76-7.81,4.25-1.91,1.2-3.67,2.42-5.3,3.63,3.37.18,6.85.76,10.44,1.76h0c3.58.99,7.24,2.37,10.96,4.17,10.25,4.93,20.28,12.58,27.51,20.99,11,12.78,17.71,29.3,18.89,46.14-.91.05-1.82.09-2.74.13-.4.02-.79.04-1.18.06-1.34.07-2.67.13-4,.19-1.08-15.09-7.12-29.89-16.98-41.35-11.18-13-34.88-28.56-53.11-23.11-.24.15-.52.24-.8.29l-.55.09c-7.1,1.15-13.9,9.62-15.89,15.03l-.1.25c-5.66,12.66-1.08,25.12,1.15,29.89,1.63,3.5,3.8,6.71,6.44,9.52,2.35,2.5,9.23,7.33,14.55,10.76-2.89-.01-5.78-.04-8.66-.09-.94,0-1.87-.03-2.81-.04-.87-.01-1.75-.03-2.64-.05h-.09c-.22-.17-.44-.33-.65-.5-2.12-1.6-3.96-3.12-5.16-4.34-.11-.11-.21-.21-.31-.32-1.1-1.17-2.13-2.39-3.09-3.66-1.86-2.47-3.46-5.12-4.77-7.93-1.3-2.77-3.24-7.7-4.14-13.81-.01-.03-.01-.05-.01-.09-.36-2.52-.54-5.25-.43-8.12.17-4.11.96-8.5,2.74-12.95.18-.46.38-.93.58-1.4.48-1.29,1.15-2.7,1.98-4.14,1.06-1.86,2.39-3.79,3.95-5.64h0c1.53-1.84,3.28-3.59,5.21-5.12.03-.02.05-.04.07-.06,1.18-.93,2.42-1.76,3.71-2.49.04-.03.07-.05.11-.06,1.77-.98,3.65-1.74,5.62-2.21,4.29-4.31,10.36-9.45,18.23-13.89.02-.01.04-.02.06-.03.17-.1.34-.19.52-.28,4.06-2.26,8.6-4.32,13.62-5.98,7.75-2.57,15.69-3.87,23.76-3.93h.09c8.12-.04,16.39,1.2,24.74,3.7,2.11-1.69,4.33-3.29,6.61-4.77.32-.2.65-.42.98-.62.23-.14.46-.28.69-.42.32-.19.64-.38.97-.57.05-.03.11-.06.17-.09.17-.1.34-.19.51-.29.56-.32,1.13-.63,1.71-.95.05-.03.11-.05.17-.09.41-.22.82-.43,1.24-.65.16-.08.32-.17.48-.24.03-.01.05-.03.09-.04.24-.12.48-.24.73-.36.24-.12.48-.24.73-.35.18-.09.36-.17.54-.25.18-.09.36-.18.56-.26.57-.26,1.15-.53,1.74-.78.54-.23,1.07-.46,1.62-.68.63-.26,1.28-.52,1.93-.77.36-.14.73-.28,1.1-.41.58-.22,1.17-.43,1.76-.63.43-.15.87-.3,1.3-.44.03-.01.05-.02.07-.03.71-.22,1.43-.45,2.17-.67.68-.2,1.37-.39,2.07-.58.62-.17,1.26-.33,1.9-.49.44-.11.89-.22,1.34-.32,1.18-.27,2.37-.51,3.58-.73,1.46-.26,2.95-.5,4.48-.69.52-.06,1.02-.12,1.55-.17,6.68-.71,13.98-.61,21.7.83.98.18,1.96.38,2.93.61.48.11.95.22,1.43.34h.01c.48.12.95.24,1.42.36.42.11.83.22,1.24.34.55.16,1.1.32,1.65.49.5-.32,1-.64,1.5-.95,1.96-1.22,5.52-3.26,10.32-5.34.09-.05.19-.08.28-.12.2-.09.41-.17.62-.26.03-.01.07-.03.11-.05,7.65-3.19,18.19-6.33,30.41-6.57.08,0,.16,0,.24,0,.28,0,.56,0,.83,0,.2,0,.42,0,.62,0,4.3,0,8.79.39,13.42,1.25,2.31.43,4.57.96,6.77,1.58,1.61-1.2,3.3-2.35,5.02-3.42,1.78-1.11,4.96-2.93,9.24-4.81.06-.03.13-.05.19-.09.71-.31,1.45-.63,2.23-.94.57-.23,1.17-.46,1.78-.69,7.67-2.89,17.8-5.45,29.33-5.16.65.01,1.31.04,1.97.08.31.01.63.03.94.05,2.68.17,5.43.51,8.23,1.03,3.56.67,7.06,1.59,10.41,2.74,2.09-1.65,4.3-3.19,6.58-4.61.34-.21.7-.43,1.06-.64.37-.21.75-.43,1.12-.65.06-.03.11-.06.17-.1.63-.35,1.28-.71,1.95-1.06.15-.07.28-.15.43-.22.22-.11.44-.22.65-.33.22-.11.45-.22.67-.34.26-.13.52-.25.77-.38.3-.15.61-.29.92-.44.24-.11.5-.23.74-.34.24-.11.49-.22.73-.32.19-.09.37-.17.56-.24.38-.17.77-.34,1.16-.49.2-.09.4-.17.6-.25.2-.09.4-.17.61-.24.2-.09.42-.17.63-.24.63-.24,1.28-.48,1.94-.72.22-.09.45-.17.67-.24.45-.16.91-.31,1.37-.47.45-.15.91-.3,1.36-.44,2.23-.69,4.54-1.31,6.93-1.82.63-.13,1.26-.26,1.89-.38,1.63-.31,3.31-.58,5.04-.79.34-.04.67-.08,1.02-.11.45-.05.91-.1,1.35-.14,6.05-.56,12.62-.41,19.54.88.48.09.96.19,1.44.29.34.07.69.14,1.03.22.44.09.88.2,1.32.3.52.13,1.03.26,1.55.39.37.1.74.2,1.1.3.44.13.89.26,1.34.39,5.06-2.42,16.6-7.03,30.98-7.03.01,0,.03,0,.05,0,.33,0,.67,0,1,0h.01c5.09.09,10.53.75,16.13,2.3,10.67,2.95,20.4,8.7,28.54,16.47.04.03.07.07.11.11.62.59,1.24,1.2,1.84,1.82,3.34,3.42,6.38,7.19,9.07,11.24,4.4,6.63,7.86,14.02,10.17,21.9.31,1.04.59,2.08.86,3.14.52,2.09.96,4.21,1.32,6.35.07.42.14.85.2,1.27.02.11.04.22.05.32.23,1.57.46,3.28.69,5.08.06.48.13.98.19,1.48.11.93.22,1.89.33,2.86.07.59.14,1.18.2,1.78.06.53.11,1.06.17,1.59.33,3.27.61,6.63.79,9.84.05.97.1,1.93.13,2.86.03.55.04,1.09.05,1.63.01.45.02.89.03,1.33,0,.38.01.76.01,1.13Z"/>
        </g>
        <path class="cls-9" d="m855.93,404.08c-.96,1-2.01,1.96-3.09,2.85-2.4,2-4.95,3.72-7.08,5.09-6.64,4.16-13.59,7.48-20.61,10.55-42.18,17.65-86.91,27.9-131.41,37.39-48.06,9.97-97.14,17.28-145.87,23.14-75.22,8.83-151.03,14.17-226.8,11.76-10.81-.36-23.36-1.12-34.13-2.03-18.97-1.82-38.17-3.58-56.34-9.69-4.15-1.51-9.29-3.46-13.25-6.36-2.74-2.01-4.92-4.48-5.84-7.57-.42-1.1-.3-2.84.12-3.75,2.2-5.05,6.05-9.21,10.4-12.49.57-.38,1.15-.75,1.74-1.11.22.75.46,1.51.71,2.25-.07.05-.15.11-.22.17-2.09,1.54-3.95,3.38-5.56,5.43-1.12,1.42-2.15,2.94-3,4.49-.42.77-.81,1.58-1.03,2.31-.13.38-.15.67-.15.75,1.45,8.71,20.69,12.72,28.23,14.29.38.08.77.15,1.16.22.12.03.24.05.36.07,2.44.46,4.9.87,7.38,1.22.23.04.46.07.7.1,4.2.59,8.42,1.04,12.6,1.39,13.66,1.4,28.31,2.05,42.21,2.34h.09c.89.02,1.76.04,2.64.05.94.01,1.87.03,2.81.04,2.89.05,5.78.07,8.66.09,21.76.13,43.53-.39,65.28-1.37,1.33-.06,2.67-.12,4-.19.4-.02.79-.04,1.18-.06.91-.04,1.82-.09,2.74-.13,19.36-.97,38.7-2.29,58.01-3.84,1.15-.09,2.29-.18,3.44-.28.36-.03.72-.05,1.08-.09,1.14-.09,2.28-.18,3.42-.28,2.45-.2,4.89-.4,7.34-.61,17.6-1.47,35.38-3.26,53.16-5.25,1.13-.13,2.26-.25,3.39-.38.44-.05.89-.1,1.33-.15,1.08-.12,2.15-.24,3.22-.37,17.16-1.98,34.3-4.12,51.23-6.36,3.13-.42,6.27-.83,9.4-1.26,1.25-.17,2.5-.34,3.75-.52h.02c1.37-.18,2.74-.38,4.12-.57,18.15-2.53,36.28-5.28,54.37-8.31,1.25-.21,2.5-.42,3.74-.63.09,0,.17-.03.24-.04,1.31-.22,2.62-.44,3.92-.67,20.47-3.52,40.88-7.41,61.2-11.74,1.39-.29,2.78-.59,4.16-.89l1.11-.24c.88-.19,1.76-.38,2.64-.57,9.72-2.13,19.41-4.36,29.07-6.7,2.15-.54,4.31-1.08,6.46-1.63,1.4-.36,2.8-.71,4.19-1.08,1.28-.33,2.56-.67,3.84-1.01,9.7-2.56,19.34-5.31,28.89-8.37,3.01-.98,6.02-1.98,9.03-3.01,2.55-.87,5.1-1.77,7.63-2.71,8.47-3.13,16.78-6.67,24.55-11.09,5.43-3.24,12.77-8.02,13.13-13.49-.29-5.26-13.61-10.36-18.21-12.07-9.42-3.31-19.25-5.86-29.15-7.73-2.57-.49-5.15-.93-7.72-1.34-.39-.05-.78-.11-1.17-.15.06-.08.13-.16.18-.24.03-.04.06-.07.09-.11.14-.19.28-.37.4-.56.06-.07.11-.15.17-.22.26-.36.52-.72.77-1.08,5.02.5,10.01,1.16,14.96,2,7.69,1.3,15.31,3.05,22.85,5.35,7.25,2.41,19.44,6.38,21.97,13.99,1.23,4.91-1.24,9.36-4.82,13.09Z"/>
        <path class="cls-9" d="m439.22,673.01c.3-.74-.71-1.3-1.18-.65-9.89,13.89-19.98,29.04-29.99,45.47-9.48,15.55-17.9,30.64-25.39,45.05-.37.71.59,1.36,1.11.75,10.87-12.59,22.74-28.28,33.97-47.27,9.15-15.48,16.12-30.19,21.47-43.36Z"/>
        <path class="cls-9" d="m569.3,711.85c-.07-.59.12-1.15.47-1.38,2.44-1.62,5.27-3.84,8.23-6.91,2.49-2.57,4.58-5.22,6.3-7.7.5-.72,1.34-.18,1.4.91.68,12.37,1.81,26.73,2.49,39.09.04.66-.25,1.24-.66,1.35-4.62,1.16-9.75,1.7-14.31,1.48-.46-.02-.89-.38-.98-1.1-.98-8.58-1.96-17.16-2.94-25.74Z"/>
        <path class="cls-9" d="m660.34,656c-.32-.39-.92.05-.64.48,9.47,14.65,18.9,29.33,28.28,44.03,9.29,14.54,18.54,29.11,27.75,43.7.27.43.92.07.71-.38-6.61-13.91-14.79-29.14-24.93-45.07-10.44-16.4-21.09-30.62-31.16-42.74Z"/>
        <path class="cls-9" d="m581.84,809.19c-.94-.07-.93-1.46.02-1.51,19.13-1.06,40.72-3.46,64.09-8.13,17.85-3.56,34.15-7.93,48.78-12.58.9-.29,1.4,1.01.54,1.4-12.99,6.03-29.32,12.14-48.65,16.28-25.27,5.42-47.6,5.75-64.78,4.53Z"/>
      </g>
      <g>
        <path class="cls-2" d="m2,983.51v-35.68h4.66v35.68c0,8.47,6.37,15.31,16.4,15.31s16.4-6.84,16.4-15.31v-35.68h4.66v35.68c0,13.06-10.34,19.98-21.06,19.98s-21.06-6.92-21.06-19.98Z"/>
        <path class="cls-2" d="m61.23,995.48v6.76h-4.66v-62.26h4.66v32.02c3.58-5.44,8.86-7.54,14.77-7.54,10.8,0,19.2,8.63,19.2,19.2s-8.32,19.43-19.2,19.43c-5.91,0-11.19-2.18-14.77-7.62Zm29.23-11.81c0-7.93-6.37-14.69-14.46-14.69s-14.77,6.76-14.77,14.69,6.61,14.92,14.77,14.92,14.46-6.76,14.46-14.92Z"/>
        <path class="cls-2" d="m106.08,983.59v-18.73h4.66v17.33c0,12.36,6.53,15.39,14.15,15.39,8.47,0,14.77-5.44,14.77-14.77v-17.96h4.66v36.53h-4.66v-6.92c-3.42,4.97-9.09,7.77-14.77,7.77-9.02,0-18.81-4.04-18.81-18.65Z"/>
        <path class="cls-2" d="m155.98,965.71h4.66v6.92c3.42-4.97,9.09-7.77,14.77-7.77,9.02,0,18.81,4.04,18.81,18.66v18.73h-4.66v-17.33c0-12.36-6.53-15.39-14.15-15.39-8.47,0-14.77,5.44-14.77,14.77v17.96h-4.66v-36.53Z"/>
        <path class="cls-2" d="m205.11,980.48v-24.87h4.66v14.54h13.6v4.66h-13.6v5.67c0,15.47,5.29,17.1,15.78,17.1h1.17v4.66h-1.17c-15.16,0-20.44-5.6-20.44-21.76Z"/>
        <path class="cls-2" d="m236.82,983.59v-18.73h4.66v17.33c0,12.36,6.53,15.39,14.15,15.39,8.47,0,14.77-5.44,14.77-14.77v-17.96h4.66v36.53h-4.66v-6.92c-3.42,4.97-9.09,7.77-14.77,7.77-9.02,0-18.81-4.04-18.81-18.65Z"/>
        <path class="cls-2" d="m313.93,988.72l4.66-.86c1.09,6.92,7.93,10.96,16.94,10.96,7.62,0,15.39-1.4,15.39-9.79,0-7.54-8.47-10.18-17.18-12.59-8.78-2.41-17.41-6.76-17.41-16.32,0-8.63,8.01-13.76,18.34-13.76,9.09,0,15.31,3.81,18.5,8.71l-3.65,3.19c-2.8-5.13-8.39-7.23-14.85-7.23s-13.45,3.11-13.45,9.09,5.83,9.56,12.83,11.5c8.78,2.41,21.76,6.14,21.76,17.41,0,9.33-7.15,14.46-20.29,14.46-10.49,0-20.91-5.44-21.61-14.77Z"/>
        <path class="cls-2" d="m405.34,983.9c0,10.57-8.39,19.2-19.2,19.2-5.91,0-11.19-2.1-14.77-7.54v23.47h-4.66v-53.32h4.66v6.37c3.58-5.44,8.86-7.62,14.77-7.62,10.88,0,19.2,8.71,19.2,19.43Zm-33.97,0c0,7.93,6.61,14.69,14.77,14.69s14.46-6.76,14.46-14.69-6.37-14.92-14.46-14.92-14.77,6.76-14.77,14.92Z"/>
        <rect class="cls-2" x="416.23" y="951.39" width="4.66" height="5.44"/>
        <rect class="cls-2" x="416.23" y="965.71" width="4.66" height="36.53"/>
        <path class="cls-2" d="m432.55,980.48v-24.87h4.66v14.54h13.6v4.66h-13.6v5.67c0,15.47,5.29,17.1,15.78,17.1h1.17v4.66h-1.17c-15.16,0-20.44-5.6-20.44-21.76Z"/>
        <path class="cls-2" d="m469.7,995.48v6.76h-4.66v-62.26h4.66v32.02c3.58-5.44,8.86-7.54,14.77-7.54,10.8,0,19.2,8.63,19.2,19.2s-8.32,19.43-19.2,19.43c-5.91,0-11.19-2.18-14.77-7.62Zm29.23-11.81c0-7.93-6.37-14.69-14.46-14.69s-14.77,6.76-14.77,14.69,6.61,14.92,14.77,14.92,14.46-6.76,14.46-14.92Z"/>
        <path class="cls-2" d="m519.22,965.71v5.75c4.04-4.35,10.34-6.61,18.27-6.61.54,0,1.09,0,1.55.08v4.9c-.47-.08-1.01-.08-1.55-.08-9.95,0-18.27,3.42-18.27,14.54v17.96h-4.66v-36.53h4.66Z"/>
        <path class="cls-2" d="m543.7,983.67c0-10.57,8.39-19.2,19.2-19.2,5.91,0,11.19,2.1,14.77,7.54v-6.3h4.66v36.53h-4.66v-6.76c-3.58,5.44-8.86,7.62-14.77,7.62-10.88,0-19.2-8.71-19.2-19.43Zm33.97,0c0-7.93-6.61-14.69-14.77-14.69s-14.46,6.76-14.46,14.69,6.37,14.92,14.46,14.92,14.77-6.76,14.77-14.92Z"/>
        <path class="cls-2" d="m593.22,983.67c0-10.57,8.39-19.2,19.2-19.2,5.91,0,11.19,2.1,14.77,7.54v-6.3h4.66v36.53h-4.66v-6.76c-3.58,5.44-8.86,7.62-14.77,7.62-10.88,0-19.2-8.71-19.2-19.43Zm33.97,0c0-7.93-6.61-14.69-14.77-14.69s-14.46,6.76-14.46,14.69,6.37,14.92,14.46,14.92,14.77-6.76,14.77-14.92Z"/>
        <rect class="cls-2" x="644.28" y="951.39" width="4.66" height="5.44"/>
        <rect class="cls-2" x="644.28" y="965.71" width="4.66" height="36.53"/>
        <path class="cls-2" d="m687.81,988.95c0-8.24,6.53-13.6,13.37-16.48-5.44-3.5-9.33-7.38-9.33-12.83,0-8.55,7.46-13.06,16.56-13.06s15.7,5.29,15.7,13.06c0,6.84-5.29,10.96-12.05,13.76.16.08.23.16.23.16,4.97,2.56,9.87,5.91,13.6,10.1,1.79-4.2,2.8-8.55,3.26-11.74l4.59-.16c-.47,3.81-1.87,9.95-4.82,15.93,2.72,4.28,4.43,9.48,4.43,15.55h-4.66c0-4.12-.93-7.7-2.49-10.8-4.12,6.06-10.42,11.04-19.35,11.04s-19.04-5.29-19.04-14.54Zm19.04,9.87c7.85,0,13.21-4.74,16.71-10.57-3.58-4.59-8.55-8.08-14.38-11.19l-2.95-1.55c-8.78,2.8-13.76,8.01-13.76,13.45s5.99,9.87,14.38,9.87Zm-.16-28.22c9.79-3.19,12.75-6.92,12.75-10.96,0-5.6-5.52-8.4-11.04-8.4s-11.89,1.87-11.89,8.4c0,4.2,4.12,7.54,10.18,10.96Z"/>
        <path class="cls-2" d="m771.84,975.04c0-15.7,12.67-28.37,28.37-28.37,8.71,0,16.48,3.89,21.69,10.03l-4.04,2.88c-4.28-4.97-10.8-8.16-18.11-8.16-12.98,0-23.24,10.65-23.24,23.63s10.26,23.63,23.24,23.63c7.23,0,14.07-3.26,18.42-8.24l3.65,3.03c-5.21,6.06-12.98,9.95-21.61,9.95-15.7,0-28.37-12.67-28.37-28.37Z"/>
        <path class="cls-2" d="m832,983.67c0-10.57,8.39-19.2,19.2-19.2,5.91,0,11.19,2.1,14.77,7.54v-6.3h4.66v36.53h-4.66v-6.76c-3.58,5.44-8.86,7.62-14.77,7.62-10.88,0-19.2-8.71-19.2-19.43Zm33.97,0c0-7.93-6.61-14.69-14.77-14.69s-14.46,6.76-14.46,14.69,6.37,14.92,14.46,14.92,14.77-6.76,14.77-14.92Z"/>
        <path class="cls-2" d="m882.29,980.48v-24.87h4.66v14.54h13.6v4.66h-13.6v5.67c0,15.47,5.29,17.1,15.78,17.1h1.17v4.66h-1.17c-15.16,0-20.44-5.6-20.44-21.76Z"/>
        <path class="cls-2" d="m912.06,984.29c0-10.73,7.93-19.43,17.88-19.43,11.35,0,18.42,8.71,18.42,19.43v.16h-31.87c.08,7.85,6.68,14.46,14.77,14.46,4.43,0,8.39-1.94,11.12-5.05l3.58,3.03c-3.5,4.04-8.71,6.61-14.46,6.61-10.73,0-19.43-8.63-19.43-19.2Zm17.96-14.77c-6.06,0-11.19,4.28-12.9,10.26h26.27c-1.63-5.98-6.37-10.26-13.37-10.26Z"/>
        <path class="cls-2" d="m964.69,965.71v5.75c4.04-4.35,10.34-6.61,18.27-6.61.54,0,1.09,0,1.55.08v4.9c-.47-.08-1.01-.08-1.55-.08-9.95,0-18.27,3.42-18.27,14.54v17.96h-4.66v-36.53h4.66Z"/>
        <rect class="cls-2" x="995.39" y="951.39" width="4.66" height="5.44"/>
        <rect class="cls-2" x="995.39" y="965.71" width="4.66" height="36.53"/>
        <path class="cls-2" d="m1012.49,965.71h4.66v6.92c3.42-4.97,9.09-7.77,14.77-7.77,9.02,0,18.81,4.04,18.81,18.66v18.73h-4.66v-17.33c0-12.36-6.53-15.39-14.15-15.39-8.47,0-14.77,5.44-14.77,14.77v17.96h-4.66v-36.53Z"/>
        <path class="cls-2" d="m1060.06,1011.73l2.88-3.89c3.73,4.27,8.55,6.45,14.22,6.45,6.14,0,13.21-1.63,13.21-12.44v-8.55c-2.72,4.12-7.77,6.3-12.83,6.3-9.48,0-17.26-7.77-17.26-17.26s7.77-17.49,17.26-17.49c5.05,0,10.42,1.87,12.83,6.22v-5.36h4.66v36.22c0,11.5-7.15,17.02-17.88,17.02-6.61,0-13.14-2.8-17.1-7.23Zm30.31-29.38c0-7.85-5.75-12.83-12.83-12.83s-12.67,5.75-12.67,12.83,5.67,12.67,12.67,12.67,12.83-5.05,12.83-12.67Z"/>
      </g>
      <path class="cls-8" d="m290.89,1065.34c170.92-6.15,344.33-6.2,515.26,0-170.93,6.2-344.34,6.16-515.26,0h0Z"/>
      <text class="cls-14" transform="translate(228.72 1149.43)"><tspan x="0" y="0">Sl</tspan><tspan class="cls-17" x="46.34" y="0">o</tspan><tspan x="76.6" y="0">w C</tspan><tspan class="cls-18" x="181.08" y="0">o</tspan><tspan x="211.86" y="0">o</tspan><tspan class="cls-16" x="244.69" y="0">k</tspan><tspan class="cls-15" x="273.97" y="0">e</tspan><tspan x="304.23" y="0">d. </tspan><tspan class="cls-15" x="367.99" y="0">S</tspan><tspan x="401.96" y="0">oul Fill</tspan><tspan class="cls-15" x="563.61" y="0">e</tspan><tspan x="593.87" y="0">d.</tspan></text>
    </g>
  </g>
</svg>